<svg xmlns="http://www.w3.org/2000/svg" viewBox="0 0 512 512" width="512" height="512" role="img" aria-label="GreenBite">
  <defs>
    <linearGradient id="g" x1="0" y1="0" x2="1" y2="1">
      <stop offset="0%" stop-color="#8BC34A"/>
      <stop offset="55%" stop-color="#4CAF50"/>
      <stop offset="100%" stop-color="#8BC34A"/>
    </linearGradient>
    <radialGradient id="v" cx="50%" cy="42%" r="72%">
      <stop offset="55%" stop-color="#000" stop-opacity="0"/>
      <stop offset="100%" stop-color="#000" stop-opacity=".22"/>
    </radialGradient>
  </defs>
  <rect width="512" height="512" fill="url(#g)"/>
  <g opacity=".16" fill="none" stroke="#ffffff" stroke-width="2">
    <circle cx="81.92" cy="102.4" r="153.6"/>
    <circle cx="440.32" cy="419.84" r="122.88"/>
  </g>
  <g transform="translate(0 -14) scale(5.12)"
        fill="none" stroke="#ffffff" stroke-width="4.5" stroke-linecap="round" stroke-linejoin="round" opacity=".92"><path d="M74 26C44 26 26 44 26 62c0 8 4 14 4 14s10-22 34-30c0 0-16 10-24 24 4 4 12 6 12 6 18 0 28-18 28-50Z"/></g>
  <text x="50%" y="486" text-anchor="middle" font-family="Segoe UI,Roboto,Helvetica,Arial,sans-serif"
         font-size="32" font-weight="600" fill="#ffffff" opacity=".95">GreenBite</text>
  <rect width="512" height="512" fill="url(#v)"/>
</svg>
